<?xml version="1.0" encoding="utf-8"?>
<!-- Generator: Adobe Illustrator 24.1.1, SVG Export Plug-In . SVG Version: 6.00 Build 0)  -->
<svg version="1.1" id="Layer_1" xmlns="http://www.w3.org/2000/svg" xmlns:xlink="http://www.w3.org/1999/xlink" x="0px" y="0px"
	 viewBox="0 0 105.3 129.71" style="enable-background:new 0 0 105.3 129.71;" xml:space="preserve">
<style type="text/css">
	.st0{fill:#007BFF;}
</style>
<g>
	<circle class="st0" cx="29.6" cy="11.21" r="11.21"/>
	<circle class="st0" cx="79.62" cy="11.21" r="11.21"/>
	<path class="st0" d="M29.6,129.49c0,0,2.77,0.4,5.41,0s5.67-32.84,6.86-35.34s10.55-2.11,13.05-4.48
		c2.51-2.37-8.04-24.13-11.47-32.44s-3.16-12.4-1.32-12.4s10.15,24.53,10.95,26.11c0.79,1.58,1.85,3.16,4.48,2.37
		c2.64-0.79,1.32-5.67,1.32-5.67s-11.6-32.84-14.37-38.37c-2.77-5.54-14.9-3.3-14.9-3.3l0,0c0,0-12.13-2.24-14.9,3.3
		S0.33,67.65,0.33,67.65s-1.32,4.88,1.32,5.67c2.64,0.79,3.69-0.79,4.48-2.37c0.79-1.58,9.1-26.11,10.95-26.11s2.11,4.09-1.32,12.4
		S1.78,87.3,4.29,89.67s11.87,1.98,13.05,4.48s4.22,34.95,6.86,35.34S29.6,129.49,29.6,129.49L29.6,129.49z"/>
	<path class="st0" d="M79.62,77.52l6.59,46.59c0,0,0.7,5.48,6.33,5.54c5.63,0.06,6.07-5.54,6.07-5.54S93.6,79.29,93.34,74.6
		c-0.26-4.69-0.4-26.18-0.4-26.18s1.19-1.45,2.24,3.16c1.05,4.62,4.88,19.65,4.88,19.65s3.03,3.69,4.88,0.66s-4.09-28.19-4.88-31.57
		c-0.79-3.38-2.51-14.45-6.59-14.85C89.38,25.08,79.62,26,79.62,26s-9.76-0.92-13.85-0.53c-4.09,0.4-5.8,11.47-6.59,14.85
		c-0.79,3.38-6.73,28.54-4.88,31.57c1.85,3.03,4.88-0.66,4.88-0.66s3.82-15.03,4.88-19.65c1.05-4.62,2.24-3.16,2.24-3.16
		s-0.13,21.49-0.4,26.18c-0.26,4.69-5.17,45.21-5.27,49.51c-0.11,4.3,2.77,5.14,6.07,5.54c3.3,0.4,4.99-1.2,6.33-5.54
		C74.37,119.77,79.62,77.52,79.62,77.52z"/>
</g>
</svg>
