<?xml version="1.0" encoding="utf-8"?>
<!-- Generator: Adobe Illustrator 25.0.1, SVG Export Plug-In . SVG Version: 6.00 Build 0)  -->
<svg version="1.1" id="Layer_1" xmlns="http://www.w3.org/2000/svg" xmlns:xlink="http://www.w3.org/1999/xlink" x="0px" y="0px"
	 viewBox="0 0 746 200.9" style="enable-background:new 0 0 746 200.9;" xml:space="preserve">
<style type="text/css">
	.st0{fill:#028237;}
	.st1{fill-rule:evenodd;clip-rule:evenodd;fill:#028237;}
	.st2{fill-rule:evenodd;clip-rule:evenodd;fill:#FFFFFF;}
	.st3{fill-rule:evenodd;clip-rule:evenodd;fill:#E21013;}
	.st4{fill:#E21013;}
	.st5{fill-rule:evenodd;clip-rule:evenodd;fill:#F9E800;}
</style>
<g>
	<path class="st0" d="M220.1,4h44.6c18.2,0,31.7,2.5,40.7,7.5c8.9,5,16.9,13,24,23.9c7.1,10.9,10.6,24.6,10.6,41.3
		c0,20.9-6.2,38.4-18.5,52.4c-12.3,14-29.3,21-51,21h-50.3V4z M253.8,30.9v91.8h14.1c12.5,0,21.7-4.7,27.8-14
		c6.1-9.3,9.1-20.3,9.1-32.8c0-8.9-1.7-17-5.2-24.6c-3.5-7.5-7.7-12.8-12.9-15.8s-11.3-4.6-18.5-4.6H253.8z"/>
	<path class="st0" d="M463.3,36.1l-29.1,9.7c-3.9-11.6-12.2-17.3-24.9-17.3c-13.5,0-20.3,4.4-20.3,13.2c0,3.5,1.3,6.5,3.8,8.9
		c2.5,2.4,8.2,4.5,17.2,6.3c14.9,3,25.8,6,32.7,9.1c6.9,3.1,12.7,8,17.5,14.8c4.7,6.8,7.1,14.4,7.1,22.9c0,13.2-5.1,24.6-15.2,34.3
		c-10.2,9.6-25.2,14.5-45.2,14.5c-15,0-27.7-3.4-38.2-10.2c-10.5-6.8-17.5-16.9-20.8-30.4l31.7-7.2c3.6,13.6,13.5,20.5,29.7,20.5
		c7.8,0,13.7-1.5,17.5-4.6c3.8-3,5.8-6.7,5.8-10.9c0-4.3-1.7-7.6-5.2-10c-3.5-2.4-10.2-4.6-20.2-6.6c-18.6-3.9-31.9-9.1-39.8-15.8
		c-7.9-6.7-11.9-16.4-11.9-29.3c0-13,4.7-23.9,14.2-32.9C379,6.2,391.8,1.7,408,1.7C436.7,1.7,455.1,13.2,463.3,36.1z"/>
	<path class="st0" d="M607.5,58.4l-35.9,2.2c-0.5-20.6-8.5-30.9-24.1-30.9c-17.9,0-26.8,15.9-26.8,47.7c0,18.3,2.4,30.8,7.3,37.3
		c4.9,6.5,11.7,9.8,20.4,9.8c14.2,0,22.8-9.2,26-27.6l33.2,2c-2.1,17.5-8.7,30.8-19.5,39.9c-10.9,9.1-24.2,13.7-40,13.7
		c-19.3,0-35.1-6.7-47.2-20c-12.1-13.3-18.2-31.8-18.2-55.4c0-22.1,5.9-40.1,17.6-54.2c11.7-14.1,27.7-21.1,48-21.1
		C583.3,1.7,603.1,20.6,607.5,58.4z"/>
	<path class="st0" d="M745.1,58.4l-35.9,2.2c-0.5-20.6-8.5-30.9-24.1-30.9c-17.9,0-26.8,15.9-26.8,47.7c0,18.3,2.4,30.8,7.3,37.3
		c4.9,6.5,11.7,9.8,20.4,9.8c14.2,0,22.8-9.2,26-27.6l33.2,2c-2.1,17.5-8.7,30.8-19.5,39.9c-10.9,9.1-24.2,13.7-40,13.7
		c-19.3,0-35.1-6.7-47.2-20c-12.1-13.3-18.2-31.8-18.2-55.4c0-22.1,5.9-40.1,17.6-54.2c11.7-14.1,27.7-21.1,48-21.1
		C720.9,1.7,740.7,20.6,745.1,58.4z"/>
</g>
<g>
	<path class="st0" d="M224.3,170.5h12.8c2.3,0,4,0.3,5.2,0.8c1.2,0.6,2.1,1.4,2.9,2.4c0.8,1,1.1,2.3,1.1,3.8c0,3-1.7,5.1-5,6.1
		c1.9,0.4,3.3,1.3,4.3,2.6c1,1.3,1.4,2.7,1.4,4.2c0,2.1-0.8,3.8-2.3,5.3s-4.1,2.2-7.6,2.2h-12.8V170.5z M230.7,175.3v6h4.9
		c1.8,0,2.9-0.4,3.4-1.1c0.5-0.7,0.7-1.4,0.7-2c0-0.7-0.2-1.3-0.6-1.8s-0.8-0.8-1.3-0.9c-0.5-0.1-1.4-0.2-2.7-0.2H230.7z
		 M230.7,186.3v6.6h4.9c1.7,0,2.9-0.3,3.6-0.9c0.7-0.6,1-1.4,1-2.5c0-0.9-0.3-1.7-1-2.3c-0.7-0.6-1.8-1-3.3-1H230.7z"/>
	<path class="st0" d="M257.6,170.5V198h-6.4v-27.5H257.6z"/>
	<path class="st0" d="M269.6,187.1V198h-6.5v-27.5h12.1c2.2,0,4,0.3,5.4,0.8c1.3,0.5,2.5,1.5,3.4,2.8c0.9,1.4,1.3,2.9,1.3,4.6
		c0,3.3-1.6,5.7-4.8,7.1l5.1,12.2h-7.1l-4.2-10.9H269.6z M269.6,175.4v7h3.9c1.3,0,2.2-0.1,2.8-0.3c0.6-0.2,1.1-0.6,1.6-1.2
		c0.5-0.6,0.7-1.3,0.7-2.1c0-0.8-0.2-1.5-0.7-2.1c-0.5-0.6-1-1-1.5-1.1c-0.5-0.1-1.5-0.2-3-0.2H269.6z"/>
	<path class="st0" d="M307.6,170.5v5.4h-6.8V198h-6.5v-22.1h-6.8v-5.4H307.6z"/>
	<path class="st0" d="M331.6,170.5V198h-6.3v-11.3h-8.6V198h-6.3v-27.5h6.3v10.7h8.6v-10.7H331.6z"/>
	<path class="st0" d="M360.9,170.5l8.6,27.5h-6.9l-1.7-5.7H352l-1.7,5.7h-5.6l8.8-27.5H360.9z M353.6,187.2h5.8l-2.9-9.6
		L353.6,187.2z"/>
	<path class="st0" d="M393.7,170.5V198h-5.5l-10.8-18.6c0,0.5,0,0.8,0,0.9c0.1,0.5,0.1,0.9,0.1,1.2V198h-5v-27.5h6.9l9.4,16.2
		c-0.1-0.8-0.1-1.4-0.1-1.8v-14.4H393.7z"/>
	<path class="st0" d="M399.2,170.5h8.4c3.4,0,6,0.5,7.6,1.4c1.7,0.9,3.2,2.4,4.5,4.5c1.3,2,2,4.6,2,7.8c0,3.9-1.2,7.2-3.5,9.9
		c-2.3,2.6-5.5,4-9.6,4h-9.5V170.5z M405.5,175.5v17.3h2.7c2.3,0,4.1-0.9,5.2-2.6c1.1-1.8,1.7-3.8,1.7-6.2c0-1.7-0.3-3.2-1-4.6
		c-0.6-1.4-1.5-2.4-2.4-3c-1-0.6-2.1-0.9-3.5-0.9H405.5z"/>
	<path class="st0" d="M436.2,170.5h8.4c3.4,0,6,0.5,7.6,1.4c1.7,0.9,3.2,2.4,4.5,4.5c1.3,2,2,4.6,2,7.8c0,3.9-1.2,7.2-3.5,9.9
		c-2.3,2.6-5.5,4-9.6,4h-9.5V170.5z M442.6,175.5v17.3h2.7c2.3,0,4.1-0.9,5.2-2.6c1.1-1.8,1.7-3.8,1.7-6.2c0-1.7-0.3-3.2-1-4.6
		c-0.6-1.4-1.5-2.4-2.4-3c-1-0.6-2.1-0.9-3.5-0.9H442.6z"/>
	<path class="st0" d="M482.6,175.7h-13.1v5.6h10.3v5.2h-10.3v6h13.1v5.4H463v-27.5h19.6V175.7z"/>
	<path class="st0" d="M500,170.5l8.6,27.5h-6.9l-1.7-5.7h-8.9l-1.7,5.7h-5.6l8.8-27.5H500z M492.6,187.2h5.8l-2.9-9.6L492.6,187.2z"
		/>
	<path class="st0" d="M526.9,170.5v5.4h-6.8V198h-6.5v-22.1h-6.8v-5.4H526.9z"/>
	<path class="st0" d="M550.9,170.5V198h-6.3v-11.3H536V198h-6.3v-27.5h6.3v10.7h8.6v-10.7H550.9z"/>
	<path class="st0" d="M573.2,187.1V198h-6.5v-27.5h12.1c2.2,0,4,0.3,5.4,0.8c1.3,0.5,2.5,1.5,3.4,2.8s1.3,2.9,1.3,4.6
		c0,3.3-1.6,5.7-4.8,7.1l5.1,12.2H582l-4.2-10.9H573.2z M573.2,175.4v7h3.9c1.3,0,2.2-0.1,2.8-0.3c0.6-0.2,1.1-0.6,1.6-1.2
		c0.5-0.6,0.7-1.3,0.7-2.1c0-0.8-0.2-1.5-0.7-2.1c-0.5-0.6-1-1-1.5-1.1c-0.5-0.1-1.5-0.2-3-0.2H573.2z"/>
	<path class="st0" d="M613.4,175.7h-13.1v5.6h10.3v5.2h-10.3v6h13.1v5.4h-19.6v-27.5h19.6V175.7z"/>
	<path class="st0" d="M638.7,183.3V198h-2.9c-0.2-1-0.5-2.1-0.9-3.2c-2,2.4-4.5,3.6-7.5,3.6c-3.6,0-6.4-1.3-8.4-3.8
		c-2-2.6-3-5.9-3-9.9c0-4.4,1.1-7.9,3.2-10.6c2.1-2.7,5-4,8.7-4c3.1,0,5.5,0.9,7.4,2.6c1.9,1.7,3,4,3.4,6.9l-6.1,0.8
		c-0.5-3.3-2.1-5-4.7-5c-1.7,0-3.1,0.8-4,2.4c-0.9,1.6-1.3,3.8-1.3,6.8c0,2.8,0.5,5,1.5,6.5c1,1.5,2.3,2.2,4.1,2.2
		c1.2,0,2.2-0.4,3.1-1.1c0.9-0.8,1.4-2,1.4-3.6h-5.2v-5.1H638.7z"/>
	<path class="st0" d="M650.2,170.5V198h-6.4v-27.5H650.2z"/>
	<path class="st0" d="M674.7,176.5l-5.5,1.8c-0.7-2.2-2.3-3.3-4.7-3.3c-2.5,0-3.8,0.8-3.8,2.5c0,0.7,0.2,1.2,0.7,1.7
		c0.5,0.5,1.6,0.9,3.2,1.2c2.8,0.6,4.9,1.1,6.2,1.7c1.3,0.6,2.4,1.5,3.3,2.8c0.9,1.3,1.3,2.7,1.3,4.3c0,2.5-1,4.6-2.9,6.4
		c-1.9,1.8-4.7,2.7-8.5,2.7c-2.8,0-5.2-0.6-7.2-1.9c-2-1.3-3.3-3.2-3.9-5.7l6-1.3c0.7,2.6,2.5,3.8,5.6,3.8c1.5,0,2.6-0.3,3.3-0.9
		c0.7-0.6,1.1-1.3,1.1-2c0-0.8-0.3-1.4-1-1.9c-0.7-0.4-1.9-0.9-3.8-1.2c-3.5-0.7-6-1.7-7.5-3c-1.5-1.3-2.2-3.1-2.2-5.5
		c0-2.4,0.9-4.5,2.7-6.2c1.8-1.7,4.2-2.5,7.2-2.5C669.7,170.1,673.2,172.2,674.7,176.5z"/>
	<path class="st0" d="M697.3,170.5v5.4h-6.8V198H684v-22.1h-6.8v-5.4H697.3z"/>
	<path class="st0" d="M719.7,175.7h-13.1v5.6h10.3v5.2h-10.3v6h13.1v5.4h-19.6v-27.5h19.6V175.7z"/>
	<path class="st0" d="M730,187.1V198h-6.5v-27.5h12.1c2.2,0,4,0.3,5.4,0.8c1.3,0.5,2.5,1.5,3.4,2.8s1.3,2.9,1.3,4.6
		c0,3.3-1.6,5.7-4.8,7.1L746,198h-7.1l-4.2-10.9H730z M730,175.4v7h3.9c1.3,0,2.2-0.1,2.8-0.3c0.6-0.2,1.1-0.6,1.6-1.2
		c0.5-0.6,0.7-1.3,0.7-2.1c0-0.8-0.2-1.5-0.7-2.1c-0.5-0.6-1-1-1.5-1.1c-0.5-0.1-1.5-0.2-3-0.2H730z"/>
</g>
<g>
	<path class="st1" d="M102.8,200.9L102.8,200.9C47.5,200.9,2.5,156,2.5,100.6l0,0C2.5,45.2,47.4,0.3,102.8,0.3l0,0
		c55.4,0,100.3,44.9,100.3,100.3l0,0C203.1,156,158.2,200.9,102.8,200.9z"/>
	<path class="st2" d="M104.1,169.8h-2.6c-37.5,0-67.9-30.4-67.9-67.9v-2.6c0-37.5,30.4-67.9,67.9-67.9h2.6
		c37.5,0,67.9,30.4,67.9,67.9v2.6C172,139.4,141.6,169.8,104.1,169.8z"/>
	<path class="st3" d="M102.8,168.6L102.8,168.6c-37.5,0-67.9-30.4-67.9-67.9l0,0c0-37.5,30.4-67.9,67.9-67.9l0,0
		c37.5,0,67.9,30.4,67.9,67.9l0,0C170.7,138.2,140.3,168.6,102.8,168.6z"/>
	<path class="st2" d="M56.8,157.7l-2.1,2.1c0,0-3.5,3.6-4.2,4.4c-1-0.5-8.1-4.1-8.1-4.1s3.7,7,4.2,8.1c-0.8,0.8-6.3,6.3-6.3,6.3
		s7.8-1.1,8.9-1.3c0.5,1,4.2,8.1,4.2,8.1s1.2-7.9,1.3-9c1.1-0.2,8.9-1.4,8.9-1.4s-7-3.6-8-4.1C55.7,165.6,56.8,157.7,56.8,157.7z"/>
	<g>
		<path class="st2" d="M41.8,119.9c8.2,26.2,32.4,45,61,45s52.7-18.8,61-45H41.8z M102.8,149.8c-14.9,0-27.7-6.2-32-14.8h64
			C130.4,143.6,117.8,149.8,102.8,149.8z"/>
		<path class="st4" d="M51.4,126.2c0.3,0.5,0.3,0.8,0.6,1.3c-0.2,0.1-0.3,0.1-0.4,0.2c0.3,0.8,0.5,1.1,0.9,1.9
			c0.7-0.3,0.9-0.5,1.6-0.8c-0.4-0.8-0.6-1.2-1-2c0.1-0.5,0.1-0.8,0.2-1.3c0.8-0.3,1.2-0.5,2-0.8c0.4,0.3,0.7,0.4,1.1,0.6
			c0.4,0.8,0.6,1.3,1.1,2.1c-0.1,0.5-0.1,0.8-0.2,1.2c-0.3,0.1-0.3,0.2-0.5,0.3c-0.3-0.4-0.3-0.7-0.6-1.1c0.2-0.1,0.3-0.1,0.4-0.2
			c-0.3-0.7-0.5-1-0.8-1.7c-0.7,0.3-0.9,0.5-1.6,0.8c0.4,0.8,0.6,1.2,1,2c-0.1,0.5-0.1,0.8-0.2,1.3c-0.8,0.4-1.1,0.6-1.9,1
			c-0.4-0.3-0.7-0.3-1.2-0.6c-0.5-0.9-0.8-1.4-1.2-2.4c0.1-0.5,0.1-0.8,0.2-1.4C51,126.3,51.2,126.3,51.4,126.2z"/>
		<path class="st4" d="M53.7,133.3c0-0.5,0-0.8,0.1-1.3c1.7-1,2.5-1.5,4.2-2.5c0.4,0.2,0.7,0.3,1.1,0.5c0.5,0.8,0.8,1.2,1.3,2
			c0,0.5,0,0.8-0.1,1.2c-1.6,1.1-2.4,1.7-4,2.8c-0.5-0.2-0.7-0.3-1.2-0.5C54.4,134.6,54.2,134.2,53.7,133.3z M54.5,133.1
			c0.4,0.7,0.7,1,1.1,1.7c1.5-1,2.2-1.5,3.7-2.5c-0.4-0.6-0.6-0.9-1-1.5C56.8,131.6,56,132,54.5,133.1z"/>
		<path class="st4" d="M61.5,133.7c0.6,0.8,0.8,1.1,1.4,1.9c-0.3,0.3-0.4,0.3-0.7,0.6c-0.2-0.2-0.3-0.3-0.3-0.5
			c-1.4,1.1-2.1,1.7-3.6,2.8c0.5,0.6,0.8,0.9,1.3,1.5c1.4-1.2,2-1.8,3.4-3c-0.2-0.2-0.3-0.3-0.4-0.4c0.3-0.3,0.4-0.3,0.7-0.6
			c0.6,0.8,0.9,1.1,1.5,1.8c-0.3,0.3-0.4,0.3-0.7,0.6c-0.2-0.2-0.3-0.3-0.4-0.4c-1.4,1.3-2.1,1.9-3.5,3.1c-0.5-0.1-0.8-0.2-1.2-0.3
			c-0.7-0.8-0.9-1.2-1.6-2c0-0.5-0.1-0.8-0.1-1.3c1.5-1.1,2.2-1.7,3.7-2.9c-0.2-0.2-0.3-0.3-0.3-0.5C61,134,61.2,133.9,61.5,133.7z"
			/>
		<path class="st4" d="M62.1,144.2c0.3-0.3,0.3-0.4,0.6-0.7c0.2,0.2,0.3,0.3,0.4,0.4c1.3-1.3,1.9-2,3.1-3.2
			c-0.3-0.3-0.3-0.3-0.6-0.6c-0.2,0.2-0.2,0.2-0.3,0.3c-0.3-0.3-0.5-0.5-0.8-0.8c0.4-0.3,0.6-0.6,1-0.9c1.4,1.5,2.2,2.2,3.7,3.6
			c-0.3,0.4-0.5,0.6-0.8,1c-0.3-0.3-0.5-0.4-0.8-0.8c0.1-0.2,0.2-0.2,0.3-0.3c-0.3-0.3-0.4-0.3-0.7-0.6c-1.2,1.4-1.9,2-3.1,3.3
			c0.2,0.2,0.3,0.3,0.4,0.4c-0.3,0.3-0.3,0.4-0.6,0.7C63.2,145.3,62.9,144.9,62.1,144.2z"/>
		<path class="st4" d="M66.2,147.8c0.3-0.3,0.3-0.4,0.6-0.7c0.2,0.2,0.3,0.3,0.5,0.4c1.1-1.4,1.7-2.1,2.8-3.6
			c-0.2-0.2-0.3-0.3-0.4-0.3c0.3-0.3,0.3-0.4,0.6-0.7c0.7,0.6,1,0.8,1.8,1.4c-0.3,0.3-0.3,0.4-0.5,0.8c-0.2-0.2-0.3-0.2-0.4-0.3
			c-0.4,0.6-0.7,0.8-1.1,1.4c0.6,0.4,0.8,0.7,1.4,1c0.4-0.6,0.6-0.8,1-1.4c-0.2-0.2-0.3-0.2-0.4-0.3c0.3-0.3,0.3-0.4,0.5-0.8
			c0.8,0.5,1.1,0.8,1.9,1.3c-0.2,0.3-0.3,0.4-0.5,0.8c-0.2-0.1-0.3-0.2-0.5-0.3c-1,1.5-1.5,2.2-2.5,3.7c0.2,0.2,0.3,0.2,0.5,0.3
			c-0.2,0.3-0.3,0.4-0.5,0.8c-0.8-0.6-1.3-0.8-2-1.4c0.3-0.3,0.3-0.4,0.5-0.8c0.2,0.2,0.3,0.3,0.5,0.3c0.4-0.6,0.6-0.8,1-1.4
			c-0.6-0.4-0.8-0.6-1.4-1.1c-0.4,0.6-0.7,0.8-1.1,1.4c0.2,0.2,0.3,0.3,0.5,0.3c-0.3,0.3-0.3,0.4-0.5,0.8
			C67.4,148.8,67,148.4,66.2,147.8z"/>
		<path class="st4" d="M76.5,154.5c-0.3-0.4-0.3-0.7-0.5-1.1c0.9-1.7,1.4-2.5,2.3-4.3c0.4-0.1,0.7-0.2,1.1-0.3
			c0.8,0.3,1.1,0.6,1.9,0.9c0.2,0.4,0.3,0.6,0.5,1c-0.2,0.4-0.3,0.6-0.4,1c-0.4-0.2-0.6-0.3-1-0.4c0.2-0.3,0.3-0.5,0.3-0.8
			c-0.6-0.3-0.9-0.4-1.5-0.8c-0.8,1.6-1.2,2.4-2,4c0.7,0.3,1,0.5,1.6,0.8c0.2-0.3,0.3-0.5,0.3-0.8c0.4,0.2,0.7,0.3,1.1,0.5
			c-0.2,0.4-0.3,0.6-0.4,1c-0.5,0.1-0.7,0.2-1.2,0.3C77.8,155.1,77.3,154.9,76.5,154.5z"/>
		<path class="st4" d="M80.7,156.4c0.2-0.3,0.2-0.5,0.3-0.8c0.3,0.1,0.3,0.2,0.6,0.3c0.7-1.7,1-2.5,1.7-4.2
			c-0.2-0.1-0.3-0.1-0.5-0.2c0.2-0.3,0.2-0.5,0.3-0.8c0.8,0.3,1.2,0.5,2,0.8c-0.1,0.3-0.2,0.5-0.3,0.8c-0.2-0.1-0.3-0.1-0.5-0.2
			c-0.7,1.7-0.9,2.5-1.6,4.2c0.3,0.1,0.3,0.1,0.6,0.2c-0.1,0.3-0.2,0.5-0.3,0.8C82,156.9,81.6,156.7,80.7,156.4z"/>
		<path class="st4" d="M85.6,158.1c0.1-0.3,0.2-0.5,0.3-0.8c0.3,0.1,0.3,0.1,0.6,0.2c0.5-1.7,0.8-2.6,1.3-4.3
			c-0.3-0.1-0.5-0.2-0.8-0.3c-0.1,0.2-0.1,0.3-0.2,0.4c-0.4-0.2-0.7-0.2-1.1-0.3c0.2-0.5,0.3-0.8,0.4-1.3c1.9,0.6,2.8,0.8,4.8,1.4
			c-0.1,0.5-0.2,0.8-0.3,1.4c-0.4-0.1-0.7-0.2-1.1-0.3c0.1-0.2,0.1-0.3,0.1-0.4c-0.3-0.1-0.5-0.1-0.8-0.2c-0.5,1.7-0.8,2.6-1.2,4.3
			c0.3,0.1,0.3,0.1,0.6,0.2c-0.1,0.3-0.2,0.5-0.3,0.8C87,158.5,86.5,158.4,85.6,158.1z"/>
		<path class="st4" d="M91.8,154.1c0.1-0.3,0.1-0.5,0.2-0.8c0.8,0.2,1.3,0.3,2.1,0.4c-0.1,0.3-0.1,0.5-0.2,0.8
			c-0.3,0-0.3-0.1-0.5-0.1c0.3,0.7,0.3,0.9,0.6,1.6c0.4-0.5,0.7-0.8,1.1-1.4c-0.3,0-0.3-0.1-0.5-0.1c0.1-0.3,0.1-0.5,0.2-0.8
			c0.8,0.2,1.3,0.2,2.1,0.3c0,0.3-0.1,0.5-0.1,0.9c-0.3,0-0.3,0-0.5-0.1c-0.7,0.8-1,1.3-1.7,2c-0.2,0.8-0.2,1.4-0.3,2.2
			c0.3,0,0.3,0.1,0.6,0.1c-0.1,0.3-0.1,0.5-0.2,0.9c-0.9-0.2-1.4-0.3-2.4-0.4c0.1-0.3,0.1-0.5,0.2-0.8c0.3,0.1,0.3,0.1,0.6,0.1
			c0.2-0.8,0.3-1.4,0.4-2.2c-0.4-1-0.6-1.4-0.9-2.5C92.1,154.2,92,154.2,91.8,154.1z"/>
		<path class="st4" d="M102.6,160.7c-0.4-0.3-0.6-0.4-0.9-0.8c0-2,0.1-2.9,0.1-4.8c0.3-0.3,0.5-0.4,0.8-0.7c0.8,0,1.3,0,2,0
			c0.3,0.3,0.5,0.4,0.9,0.7c0,0.4,0,0.7,0.1,1.1c-0.4,0-0.7,0-1.1,0.1c0-0.3,0-0.5,0-0.9c-0.7,0-1,0-1.7,0c0,1.8,0,2.7,0,4.5
			c0.8,0,1.1,0,1.8,0c0-0.3,0-0.5,0-0.9c0.5,0,0.7,0,1.2-0.1c0,0.4,0,0.7,0.1,1.1c-0.3,0.3-0.6,0.4-0.9,0.8
			C103.9,160.7,103.5,160.7,102.6,160.7z"/>
		<path class="st4" d="M108.1,160.5c-0.4-0.3-0.6-0.3-1-0.7c-0.2-2-0.3-2.9-0.3-4.8c0.3-0.3,0.5-0.5,0.8-0.8c0.8-0.1,1.3-0.1,2-0.3
			c0.4,0.3,0.6,0.3,0.9,0.6c0.3,2,0.4,2.9,0.7,4.8c-0.3,0.3-0.5,0.5-0.8,0.8C109.4,160.3,108.9,160.4,108.1,160.5z M108.2,159.6
			c0.7-0.1,1.1-0.1,1.8-0.2c-0.3-1.8-0.3-2.7-0.6-4.5c-0.7,0.1-1,0.1-1.6,0.2C107.9,156.8,108,157.8,108.2,159.6z"/>
		<path class="st4" d="M112.5,159.9c-0.1-0.3-0.1-0.5-0.2-0.8c0.3,0,0.3-0.1,0.6-0.1c-0.3-1.8-0.5-2.6-0.8-4.4
			c-0.3,0-0.3,0.1-0.5,0.1c-0.1-0.3-0.1-0.5-0.2-0.8c1.4-0.3,2-0.3,3.4-0.7c0.4,0.2,0.6,0.3,1,0.5c0.3,0.8,0.3,1.3,0.5,2.1
			c-0.1,0.2-0.2,0.2-0.3,0.3c0.2,0.1,0.3,0.1,0.4,0.2c0.2,0.8,0.3,1.2,0.5,2c0.3-0.1,0.3-0.1,0.6-0.2c0.1,0.3,0.2,0.5,0.3,0.8
			c-0.9,0.3-1.4,0.3-2.4,0.6c-0.1-0.3-0.1-0.5-0.2-0.8c0.3-0.1,0.3-0.1,0.6-0.2c-0.2-0.7-0.3-1-0.4-1.8c-0.7,0.2-1,0.3-1.7,0.3
			c0.2,0.7,0.3,1,0.3,1.8c0.3-0.1,0.3-0.1,0.6-0.1c0.1,0.3,0.1,0.5,0.2,0.8C113.9,159.6,113.5,159.7,112.5,159.9z M113.6,156
			c0.7-0.2,1-0.2,1.7-0.3c-0.2-0.7-0.3-1-0.4-1.8c-0.7,0.2-0.9,0.3-1.6,0.3C113.4,155,113.4,155.3,113.6,156z"/>
		<path class="st4" d="M119.1,158.4c-0.1-0.3-0.2-0.5-0.3-0.8c0.3-0.1,0.3-0.1,0.6-0.2c-0.5-1.7-0.8-2.5-1.4-4.3
			c-0.3,0.1-0.3,0.1-0.5,0.2c-0.1-0.3-0.2-0.5-0.3-0.8c1.4-0.4,2-0.6,3.3-1.1c0.4,0.2,0.7,0.3,1.1,0.3c0.3,0.8,0.5,1.2,0.8,2
			c-0.3,0.4-0.3,0.6-0.6,1c-0.8,0.3-1.1,0.4-1.9,0.7c0.3,0.7,0.3,1,0.6,1.7c0.3-0.1,0.3-0.1,0.6-0.2c0.1,0.3,0.2,0.5,0.3,0.8
			C120.5,157.9,120.1,158.1,119.1,158.4z M119.7,154.5c0.7-0.2,1-0.3,1.6-0.6c-0.3-0.7-0.3-1-0.6-1.7c-0.6,0.3-0.9,0.3-1.6,0.5
			C119.4,153.4,119.5,153.8,119.7,154.5z"/>
		<path class="st4" d="M125.8,156c-0.5-0.1-0.7-0.2-1.2-0.3c-0.8-1.8-1.1-2.7-1.9-4.5c0.3-0.4,0.3-0.6,0.5-1
			c0.8-0.3,1.2-0.5,1.9-0.8c0.4,0.1,0.7,0.2,1.1,0.3c0.8,1.8,1.4,2.6,2.2,4.3c-0.3,0.4-0.3,0.7-0.6,1.1
			C127.1,155.5,126.7,155.6,125.8,156z M125.7,155.1c0.7-0.3,1-0.4,1.7-0.8c-0.8-1.6-1.2-2.5-2-4.1c-0.6,0.3-0.9,0.4-1.5,0.7
			C124.6,152.6,125,153.4,125.7,155.1z"/>
		<path class="st4" d="M130,154c-0.2-0.3-0.3-0.5-0.4-0.8c0.3-0.1,0.3-0.2,0.5-0.3c-0.8-1.6-1.3-2.4-2.1-4c-0.2,0.1-0.3,0.2-0.5,0.3
			c-0.2-0.3-0.3-0.5-0.4-0.8c1.3-0.7,1.9-1,3.1-1.8c0.4,0.1,0.7,0.1,1.2,0.2c0.5,0.8,0.7,1.1,1.2,1.8c-0.1,0.2-0.1,0.3-0.2,0.4
			c0.2,0,0.3,0,0.4,0c0.4,0.7,0.7,1,1.1,1.7c0.2-0.2,0.3-0.2,0.5-0.3c0.2,0.3,0.3,0.4,0.5,0.8c-0.8,0.6-1.3,0.8-2.1,1.4
			c-0.2-0.3-0.3-0.4-0.4-0.8c0.2-0.1,0.3-0.2,0.5-0.3c-0.3-0.6-0.6-0.9-0.9-1.5c-0.6,0.3-0.9,0.6-1.5,0.9c0.3,0.6,0.5,0.9,0.9,1.5
			c0.3-0.1,0.3-0.2,0.5-0.3c0.2,0.3,0.3,0.5,0.4,0.8C131.3,153.4,130.8,153.6,130,154z M129.8,150c0.6-0.3,0.9-0.5,1.5-0.9
			c-0.3-0.6-0.6-0.9-0.9-1.5c-0.6,0.3-0.8,0.5-1.4,0.8C129.2,149.1,129.5,149.4,129.8,150z"/>
		<path class="st4" d="M135.8,150.5c-0.2-0.3-0.3-0.4-0.5-0.8c0.2-0.2,0.3-0.2,0.5-0.3c-0.8-2.1-1.2-3.1-2-5.3
			c0.3-0.3,0.5-0.4,0.9-0.7c1.8,1.4,2.7,2,4.6,3.3c0.2-0.2,0.3-0.3,0.5-0.4c0.3,0.3,0.3,0.4,0.6,0.7c-0.8,0.7-1.2,1-2,1.6
			c-0.3-0.3-0.3-0.4-0.6-0.7c0.2-0.2,0.3-0.3,0.5-0.4c-0.3-0.3-0.4-0.3-0.8-0.6c-0.4,0.3-0.7,0.5-1.1,0.8c0.2,0.3,0.3,0.5,0.3,0.8
			c0.2-0.2,0.3-0.3,0.5-0.3c0.3,0.3,0.3,0.4,0.5,0.7C137,149.6,136.7,149.9,135.8,150.5z M135.3,145.2c0.3,0.7,0.4,1,0.8,1.7
			c0.3-0.3,0.4-0.3,0.7-0.6C136.3,145.9,135.9,145.7,135.3,145.2z"/>
		<path class="st4" d="M142.5,145c-0.3-0.3-0.3-0.4-0.6-0.7c0.2-0.2,0.3-0.3,0.4-0.4c-1.3-1.3-1.9-2-3.1-3.2
			c-0.3,0.3-0.3,0.3-0.6,0.6c0.1,0.2,0.2,0.2,0.3,0.3c-0.3,0.3-0.5,0.5-0.8,0.8c-0.3-0.4-0.5-0.6-0.9-1c1.5-1.4,2.3-2.1,3.7-3.7
			c0.4,0.3,0.6,0.5,1,0.9c-0.3,0.3-0.5,0.5-0.8,0.8c-0.2-0.1-0.2-0.2-0.3-0.3c-0.3,0.3-0.3,0.4-0.6,0.6c1.3,1.3,2,1.9,3.2,3.1
			c0.2-0.2,0.3-0.3,0.4-0.4c0.3,0.3,0.4,0.3,0.7,0.6C143.6,144,143.2,144.4,142.5,145z"/>
		<path class="st4" d="M146.3,141c-0.3-0.3-0.4-0.3-0.7-0.6c0.2-0.2,0.3-0.3,0.4-0.5c-1.4-1.2-2-1.8-3.4-3c-0.2,0.2-0.3,0.3-0.4,0.4
			c-0.3-0.3-0.4-0.3-0.7-0.6c0.6-0.7,0.9-1.1,1.5-1.8c0.3,0.3,0.4,0.3,0.7,0.6c-0.2,0.2-0.3,0.3-0.3,0.5c1.4,1.1,2.1,1.7,3.5,2.9
			c0.2-0.2,0.3-0.3,0.4-0.5c0.3,0.3,0.4,0.3,0.7,0.6C147.3,139.9,147,140.3,146.3,141z"/>
		<path class="st4" d="M149.4,137.1c-0.5,0.2-0.8,0.3-1.2,0.4c-1.5-1.2-2.3-1.8-3.9-3c0-0.5,0-0.8,0-1.2c0.5-0.8,0.8-1.1,1.3-1.9
			c0.4-0.2,0.7-0.3,1.1-0.4c1.6,1,2.5,1.6,4.1,2.6c0,0.5,0,0.8,0,1.3C150.3,135.9,150,136.3,149.4,137.1z M148.8,136.4
			c0.4-0.7,0.7-0.9,1.1-1.6c-1.5-1-2.2-1.5-3.7-2.5c-0.4,0.6-0.6,0.9-1,1.5C146.6,134.8,147.4,135.4,148.8,136.4z"/>
		<path class="st4" d="M152.1,132.9c-0.3-0.2-0.4-0.3-0.8-0.5c0.2-0.3,0.2-0.3,0.3-0.6c-1.5-0.9-2.3-1.4-3.9-2.3
			c-0.1,0.3-0.2,0.3-0.3,0.5c-0.3-0.2-0.4-0.3-0.8-0.5c0.3-0.6,0.6-0.9,0.9-1.6c1.9-0.1,2.9-0.2,4.8-0.4c-1.1-0.6-1.7-0.8-2.8-1.4
			c-0.1,0.3-0.2,0.3-0.3,0.6c-0.3-0.2-0.5-0.3-0.8-0.4c0.4-0.9,0.7-1.4,1.1-2.3c0.3,0.2,0.5,0.3,0.8,0.3c-0.1,0.3-0.2,0.3-0.3,0.6
			c2,0.9,3,1.4,4.9,2.3c-0.3,0.5-0.3,0.8-0.6,1.3c-2,0.3-2.9,0.4-4.8,0.5c1.1,0.6,1.6,0.9,2.7,1.5c0.2-0.3,0.2-0.3,0.3-0.6
			c0.3,0.2,0.5,0.3,0.8,0.4C153,131.5,152.7,132,152.1,132.9z"/>
		<path class="st2" d="M152.1,62.2c-0.9-0.9-2.1-1.4-3.4-1.4c-1.4,0-2.7,0.6-3.7,1c-0.3,0.2-0.5,0.3-0.8,0.6l-2.3-5.8l-1.1,2
			l-5.3,9.5l11.8,2.5l-2.4-6.1c0.3-0.3,0.7-0.6,1-0.8c0.8-0.4,1.9-0.7,2.5-0.7c0.8,0,1.4,0.3,2,0.9c0.3,0.3,0.7,0.9,0.9,3.3v48.1
			h-47.8v-25c0.7,0,1.3-0.1,2-0.2l0.5,1.9l2-0.6l-0.4-1.6c1-0.3,2.1-0.6,3.1-0.9l2.4,3.7l1.8-1.1l-2.2-3.5c0.9-0.4,1.9-1,2.8-1.6
			l0.9,1.4l1.8-1.2l-1-1.5c0.7-0.5,1.3-1,1.9-1.6l3.1,3.1l1.5-1.5l-3.2-3.2c0.6-0.7,1.2-1.4,1.7-2.1l2,1.1l1-1.9l-1.9-1
			c0.4-0.8,0.8-1.6,1.3-2.4l3.7,1.7l0.8-2l-3.8-1.7c0.4-1.2,0.8-2.5,1.1-3.7l2,0.4l0.4-2l-2.1-0.5c0.2-1,0.2-2,0.3-3.1h4.4v-2.1
			h-4.4c-0.1-1-0.2-2-0.3-2.9l1.5-0.2l-0.3-2.1l-1.6,0.2c-0.3-0.9-0.5-1.9-0.8-2.8l4-1.3l-0.7-2l-4.1,1.3c-0.4-0.9-0.8-1.8-1.4-2.7
			l0.9-0.5l-1-1.9l-1,0.6c-0.7-1-1.5-2-2.4-3l2.6-2.6l-1.5-1.5l-2.6,2.6c-0.4-0.4-0.8-0.8-1.3-1.1l0.7-0.9l-1.7-1.2l-0.7,0.9
			c-0.8-0.5-1.5-1-2.4-1.4l1.3-2.7l-1.9-0.9l-1.3,2.7c-0.8-0.3-1.8-0.7-2.7-0.9l0.3-1.1l-2-0.6l-0.4,1.3c-0.9-0.2-1.9-0.3-2.9-0.3
			v-3.3h-2.1v3.3c-1,0-2,0.2-2.9,0.3l-0.4-1.3l-2,0.6l0.3,1.1c-0.9,0.3-1.8,0.6-2.7,0.9l-1.3-2.7l-1.9,0.9l1.3,2.7
			c-0.8,0.4-1.5,0.8-2.3,1.4l-0.8-0.9l-1.7,1.3l0.7,0.8c-0.4,0.3-0.8,0.8-1.3,1.1l-2.5-2.6l-1.4,1.6l2.5,2.6c-0.8,0.9-1.6,1.9-2.4,3
			l-1-0.6l-1,1.9l0.9,0.5c-0.5,0.8-0.9,1.8-1.4,2.7l-4.1-1.3l-0.7,2l4,1.3c-0.3,0.9-0.6,1.9-0.8,2.8l-1.6-0.2l-0.3,2.1l1.5,0.2
			c-0.2,0.9-0.3,1.9-0.3,2.9h-4.4v2.1h4.4c0,1,0.1,2,0.3,3.1l-2.1,0.5l0.4,2l2-0.4c0.3,1.3,0.7,2.5,1.1,3.7l-3.8,1.7l0.8,2l3.7-1.7
			c0.4,0.8,0.8,1.6,1.3,2.4l-1.9,1l1,1.9l2-1.1c0.5,0.8,1.1,1.5,1.8,2.2l-3.1,3.1l1.5,1.5l3.1-3.1c0.6,0.5,1.2,1.1,1.8,1.5l-1,1.5
			l1.8,1.2l0.9-1.4c0.9,0.6,1.9,1.1,2.8,1.6l-2,3.5l1.9,1.1l2.2-3.7c1,0.3,2,0.7,3.1,0.9l-0.5,1.6l2,0.6l0.5-1.9
			c0.7,0.1,1.3,0.2,2,0.2v24.8H54.1V66.8l0,0c0-1.6,0.4-2.6,0.8-3c0.7-0.7,1.4-1,2.1-1c0.8,0,1.7,0.3,2.7,0.8c0,0,0.5,0.6,0.8,0.9
			l-2.4,5.9L70.1,68l-6.4-11.5l-0.8,2l-1.5,3.8l-0.5-0.6c-1.1-0.6-2.5-1.1-3.8-1.1c-1.3,0-2.5,0.5-3.5,1.5c-0.9,0.7-1.4,2.9-1.5,5
			l0,0v49.1v1.1h1.1h48.6v1.8l0,0v31.5h2.1v-31.1l0,0v-2.3h48.9h1v-1V66.9C153.5,65.1,153.2,63.2,152.1,62.2z M138.8,66.6
			c0.8-1.3,1.8-3.2,2.8-5c0.8,2,1.7,4.2,2.5,6.1C142.2,67.3,140.3,66.9,138.8,66.6z M64,61.6c1,1.9,2,3.7,2.8,5
			c-1.4,0.3-3.4,0.7-5.2,1.1C62.3,65.9,63.2,63.6,64,61.6z M102.6,88.7c-12.7,0-22.9-11.1-22.9-24.8S90,39.2,102.6,39.2
			s22.9,11.1,22.9,24.8C125.7,77.6,115.3,88.7,102.6,88.7z"/>
		<g>
			<rect x="106" y="104.7" class="st2" width="13.1" height="2.1"/>
			<rect x="126.2" y="104.7" class="st2" width="12.5" height="2.1"/>
			<path class="st2" d="M122.3,103.8c-1,0-2,0.9-2,2c0,1.1,0.8,2,2,2c1.2,0,2-0.8,2-2C124.3,104.6,123.4,103.8,122.3,103.8z"/>
		</g>
		<g>
			<rect x="66.6" y="104.7" class="st2" width="13.1" height="2.1"/>
			<rect x="86.8" y="104.7" class="st2" width="12.5" height="2.1"/>
			<path class="st2" d="M82.9,103.8c-1,0-2,0.9-2,2c0,1.1,0.8,2,2,2c1.2,0,2-0.8,2-2C84.8,104.6,84,103.8,82.9,103.8z"/>
		</g>
		<ellipse class="st5" cx="102.6" cy="64.2" rx="23.4" ry="25.5"/>
		<polygon class="st3" points="128.1,123.8 131.3,125.5 133.8,123 133.3,126.4 136.4,128.1 132.9,128.7 132.4,132.2 130.7,129 
			127.2,129.7 129.8,127 		"/>
		<polygon class="st3" points="70.1,123.8 73.4,125.5 75.7,123 75.1,126.4 78.4,128.1 74.8,128.7 74.4,132.2 72.7,129 69.2,129.7 
			71.7,127 		"/>
		<path class="st4" d="M83.1,130.3v-0.9h0.8v-4.8h-0.8v-0.9h4.8l1.2,0.8v5.1l-1.2,0.8L83.1,130.3L83.1,130.3z M85.3,129.4h2.2v-4.8
			h-2.2V129.4z"/>
		<path class="st4" d="M90.5,130.3v-0.9h0.8v-4.8h-0.8v-0.9h3v0.9h-0.8v1.9h2.2v-1.9h-0.8v-0.9h3v0.9h-0.8v4.8h0.8v0.9h-3v-0.9h0.8
			v-1.9h-2.2v1.9h0.8v0.9L90.5,130.3L90.5,130.3z"/>
		<path class="st4" d="M98.7,130.3v-0.9h0.8l1.9-5.7h1.4l1.9,5.7h0.8v0.9h-3v-0.9h0.8l-0.3-0.9h-1.7l-0.3,0.9h0.8v0.9H98.7z
			 M102,125.7l-0.6,1.9h1.1L102,125.7z"/>
		<path class="st4" d="M106.8,130.3v-0.9h0.8v-4.8h-0.8v-0.9h3v0.9H109v2.2l2.8-2.2h-0.8v-0.9h3v0.9h-0.8l-2.5,2l2.5,2.6h0.8v0.9h-3
			v-0.9h0.8l-2-2L109,128v1.4h0.8v0.9L106.8,130.3L106.8,130.3z"/>
		<path class="st4" d="M115.6,130.3v-0.9h0.8l1.9-5.7h1.4l1.9,5.7h0.8v0.9h-3.1v-0.9h0.8l-0.3-0.9H118l-0.3,0.9h0.8v0.9H115.6z
			 M118.9,125.7l-0.6,1.9h1.1L118.9,125.7z"/>
		<path class="st3" d="M120.3,57.2v-1.1h-1.8l0,0l-14.8-6.4v-3.7h3l-4-4.8l-0.4,0.5l-3.6,4.3h3v3.7l-14.8,6.5l0,0h-2v1.1h2.5
			l10.3,24c-1.9-0.2-3.3,0-4.2,0.5c-0.7,0.1-1.3-0.2-1.6-0.6c-0.2-0.3-0.2-0.5-0.1-0.8c0.2-0.3,0.8-0.6,1.6-0.7l-0.1-2.1
			c-1.6,0.1-2.8,0.7-3.4,1.8c-0.4,0.9-0.3,2,0.3,2.9c0.5,0.8,1.4,1.3,2.3,1.4c0,0.8,0.3,1.9,1.9,2.5l0.8-2c-0.5-0.3-0.7-0.3-0.6-0.9
			c0.5-0.3,1.7-0.4,4.2-0.1l0.1,0.1h2.8v5.9h2.1v-5.9h2.8l0.1-0.1c2-0.3,3.4-0.3,4.2,0c0.1,0.5-0.1,0.7-0.6,0.9l0.8,2
			c1.5-0.7,1.9-1.7,1.9-2.5c1-0.2,1.9-0.7,2.4-1.4c0.6-0.9,0.7-2,0.2-2.9c-0.6-1.1-1.8-1.8-3.3-1.8l-0.1,2.1c0.8,0,1.3,0.3,1.5,0.7
			c0.1,0.3,0.1,0.5-0.1,0.8c-0.3,0.4-0.9,0.6-1.6,0.6c-1-0.5-2.3-0.7-4.2-0.5l10.5-24C118.2,57.2,120.3,57.2,120.3,57.2z M102.6,43
			L102.6,43L102.6,43L102.6,43z M100.2,81.6c-0.5-1.2-9.7-22.5-10.4-24.3l0,0h11.8v24.3H100.2z M115.7,57.3
			c-0.8,1.8-10,23.1-10.5,24.3h-1.4V57.2L115.7,57.3C115.7,57.2,115.7,57.3,115.7,57.3z"/>
	</g>
	<g>
		<path class="st2" d="M38.2,151.8l0.2-0.3c0.5-0.8,1.1-2.2-0.3-4l0,0l-6.4-8.9l0,0c-1-1.4-2.3-1.9-3.7-1.3c0,0,0,0-0.3,0.1
			c-0.3,0.1-2.5,1.8-2.7,2c-0.2,0.2-0.3,0.3-0.3,0.3c-0.5,0.9-0.4,2,0.2,3l0.1,0.1l5.2,7.1l1.7-1.3l-5.1-7l0,0
			c-0.3-0.3-0.3-0.6-0.2-0.8l2.4-1.7c0.3-0.1,0.5-0.1,1.1,0.6l0,0l6.4,9l0.1,0.1c0.6,0.7,0.5,1.1,0.3,1.4l-7.3,6
			c-4.2-5.6-7.8-12.5-10.5-20l10.5-3.7l-0.7-2l-10.5,3.7c-2.1-6.3-3.7-12.9-4.7-19.5l3-0.7l3,13.3l0,0c0.3,1.4,1.3,2.4,2.5,2.4
			l4.3-1l0.2-0.1c1.2-0.7,1.6-1.7,1.4-3l0,0l-2.9-13.5l-0.4-2l-6.5,1.4l-1-5.3l1.6-0.3l0.5,2.6l2-0.4c0,0-0.3-1.6-0.6-2.9
			s-1.5-1.5-2-1.4c-0.5,0.1-2.5,0.4-2.5,0.4l-0.3,0.1c-0.8,0.4-1.2,1.3-1,2.2l0,0l1,5.5l-2.8,0.6c-0.5-4.4-0.7-8.8-0.5-13.1
			l11.1,1.4l0.3-2.1l-11.4-1.2c0.1-0.8,0.1-1.6,0.2-2.5l-2.1-0.2c-2.3,22.3,6,50.6,19.3,65.8l1.6-1.4c-0.3-0.4-0.7-0.8-1.1-1.3
			L38.2,151.8z M22.9,112.7l2.8,13.5l0,0c0,0.1,0,0.1,0,0.2c0,0.2-0.1,0.3-0.4,0.5c-0.4,0.1-3.7,0.8-3.7,0.8s-0.2-0.3-0.3-0.7v-0.1
			l-3-13.3L22.9,112.7z"/>
		<path class="st2" d="M77.1,17.7c0.5-0.2,1-0.3,1.5-0.4l1.9,10.9l2.1-0.3l-1.9-11c1-0.3,2.1-0.5,3.1-0.8c-0.3,0.7-0.3,1.4,0.1,2.1
			c0.5,1.4,2,2.3,3.7,2.2h0.2c4.2-0.7,6.1-0.3,6.5,0.5c0.1,1.3-0.3,2.5-3.2,2.7l0,0c-1.2,0.2-3.9,0.4-4.5-1l-2,0.7
			c0.4,1.2,1.9,3.1,6.7,2.4l0,0c3.7-0.4,4.9-2.3,5.1-4.1h3.4v3.7h2.1V14c1.5,0,3,0,4.5,0.1l-0.8,10.7l2.1,0.2l0.8-10.8
			c1.2,0.1,2.4,0.2,3.6,0.3l-0.7,8.2v0.3c0.2,1.4,1.2,2.4,2.7,2.8l0,0l10.8,2.6l0,0c1.6,0.3,2.8-0.1,3.6-1.4l0.2-0.4l0.4-3.4v-0.3
			c-0.2-0.8-0.7-2-2.3-2.2l0,0l-8.4-1.9l-0.4,2l8.4,1.9h0.1c0.4,0.1,0.6,0.2,0.6,0.4l-0.4,3c-0.2,0.3-0.4,0.4-1.2,0.3l0,0l-10.8-2.5
			c-0.8-0.3-1.1-0.7-1.2-1l0.7-8c5.9,0.8,11.8,2.1,17.7,4.2l0.7-2c-0.3-0.1-0.7-0.2-0.9-0.3l0.3-1.8l0,0c0.3-1.2-0.4-2.4-1.7-2.9
			h-0.2l-5.2-1.4l-0.5,2l5.1,1.4c0.3,0.1,0.4,0.3,0.3,0.4v0.1l-0.3,1.5c-7-2.1-13.9-3.4-20.9-3.8l0.1-1.3c0.2-0.8,0.5-1,1-1l10,1
			l0.3-2.1l-10-1.1H110c-1.7,0-2.7,0.8-3.1,2.6v0.2l-0.1,1.4c-8.7-0.3-17.5,0.5-26.2,2.6l-0.4-0.8c0-0.8,0.4-1.1,0.8-1.2l9.8-1.4
			L90.6,9l-9.9,1.4h-0.1c-1.5,0.4-2.5,1.6-2.5,3.3v0.2l0.2,1.2c-0.6,0.2-1.2,0.3-1.8,0.5L77.1,17.7z M95.3,20.5L95.3,20.5L95.3,20.5
			L95.3,20.5z M86.6,15.6l-0.2-0.2c4.4-0.8,8.9-1.3,13.3-1.4v5.3h-3.8c-1.2-1.5-4-2-8.5-1.2c-0.8,0-1.4-0.3-1.6-0.8
			C85.7,16.8,85.9,16.2,86.6,15.6z"/>
		<path class="st2" d="M132.9,178.4l-0.7-2c-20.2,6.5-38.5,6.5-56.1,0l-0.8,2c0.8,0.3,1.7,0.6,2.5,0.8l-1.4,6.6v0.3
			c0,2.1,1.9,2.6,2.5,2.8l0,0l9.6,2.5l0,0c2.1,0.5,3-0.5,3.4-1.4v-0.1l0.6-2.3v-0.3c0-1.1-0.8-2-2-2.3l0,0l-7.4-1.8l-0.5,2l7.5,1.8
			h0.1c0.2,0,0.3,0.1,0.3,0.2l-0.5,2c-0.1,0.2-0.2,0.3-0.8,0.1l0,0l-9.6-2.5l0,0c-0.8-0.3-0.8-0.4-0.8-0.7l1.3-6.3
			c5.4,1.7,11,2.7,16.6,3.2l-0.2,9.3h2.1l0.2-9.2c6.7,0.4,13.5-0.1,20.5-1.4l0.2,1.9l-12,1.5h-0.1l0,0l0,0c-1.4,0.3-2.2,1.2-2.2,2.4
			l0.3,3.7l0.1,0.2c0.4,0.8,1.1,1.4,2,1.4l0,0c0.1,0,0.2,0,0.2,0c0.1,0,0.2,0,0.2,0l0,0l0,0h0.1l13.1-1.4l1-0.2l-0.1-1l-0.4-4.8
			l4.6-0.3l0.1,1.3l-2.1,0.2l0.1,2.1l2.5-0.2l0,0c0.9,0,1.6-0.7,1.6-1.7v-0.1l-0.2-2l0,0c0-0.8-0.5-1.7-1.8-1.7h-0.1l-5,0.3l-0.2-2
			c2.8-0.6,5.7-1.3,8.6-2.1l3.5,9.1l2-0.8l-3.4-8.9C132.2,178.7,132.5,178.5,132.9,178.4z M107.9,191C107.8,191,107.8,191,107.9,191
			c-0.1,0-0.1,0-0.2,0h-0.1c0,0-0.1,0-0.1-0.1l0,0l-0.1-0.1l0,0c0,0,0,0,0-0.1c0,0,0,0,0-0.1c-0.1-0.5-0.3-2.7-0.3-3l0,0
			c0-0.1,0.3-0.2,0.5-0.3l11.9-1.5l0.3,3.8L107.9,191z"/>
		<g>
			<path class="st2" d="M60.6,20.9l2.2-1.1l-1-1.8l-3.9,2l0.8,1.8l0,0l1.3,2.5c-4.9,2.7-8.9,5.3-12.5,8.1l0,0
				c-0.8,0.6-1.2,1.4-1.2,2.4l0.2,0.6l1.4,2.1l0.3,0.3c1.2,0.8,2.5,0.4,3.2,0.1l0.3-0.2c2.3-1.8,4.6-3.2,6.8-4.3l-0.9-1.9
				c-2.4,1.1-4.7,2.5-7,4.4c-0.5,0.3-0.8,0.3-1,0.2c0,0-1.2-1.3-1-1.6c0.1-0.3,0.1-0.3,0.3-0.4l0,0c3.5-2.7,7.4-5.3,12.1-7.9
				l3.3,6.2l1.9-1L60.6,20.9z"/>
			<path class="st2" d="M43,40.8c0.8-0.9,1.8-1.3,3.7,0.2l1.3-1.7c-0.9-0.7-3.8-2.9-6.6,0.1l-2,2.5l-1-0.9l3-3.3l-1.4-1.2l-2.7,2.9
				c-3.4,3.7-6.6,8.1-6.6,8.1l1,0.8l0,0l0,0l0.5,0.3c1.9,1.4,3.8,1.1,5.3-0.8l2.1-2.9l3,2.3l-3.5,4.4C38.5,51.1,37.8,51,37,51
				c-1.2,0.1-2.3,0.8-3.4,2.3l-1.2,1.5c-1.9-0.9-3.6-0.5-5,1.3c0,0-1.1,1.4-1.8,2.4c-0.4-0.3-0.8-0.7-0.8-0.7l-0.8-0.5l-0.6,0.9
				c-0.5,0.8-0.9,1.6-1.4,2.5l-0.8-0.4l0,0c-0.3-0.2-0.5-0.3-0.7-0.7c-0.2-0.4-0.1-0.8,0.1-1.3l8.1-12.1L26.7,45l-8.1,12.2l-0.1,0.1
				c-0.4,0.9-0.5,2-0.2,3.1c0.3,0.8,0.9,1.5,1.8,2l0,0l0.8,0.3c-3.7,7-6.5,14.6-8.8,23.3l2,0.5c0.3-1,0.5-2.1,0.8-3.1l4.2,1h0.3
				c0.7,0,2.2,0,2.8-1.6v-0.1l3.7-11.4l0,0l0.1-0.4l0.2,0.1l0,0l4.7,2l0.8-2l-4.8-2L26.6,69l0,0c-0.7-0.2-2-0.2-2.7,1.5v0.1
				l-3.7,11.4c-0.1,0.1-0.2,0.2-0.8,0.3l-3.7-0.8c2-6.5,4.3-12.5,7.2-17.8l10.3,4.8l0.9-2l-10.2-4.8c0.3-0.4,0.4-0.8,0.7-1.2
				l1.4,1.2l3.1-4.1c0.7-0.8,1.3-1.2,2-0.9l-2.8,3.6l1.7,1.3l5.3-6.9c0.8-0.9,1.4-1.4,2-1.5c0.2,0,0.4,0,0.7,0.1l-2.7,3.5
				c-0.5,0.8-1.4,2.5,0.1,4c0.1,0.1,1.9,0.6,1.9,0.6c0.8-0.1,1.4-0.6,2.1-1.4l0.1,0.1l2-2.8l0.2-0.3l0,0l0,0l-0.9-0.7l-0.8-0.5
				l-2.2,2.9c-0.3,0.4-0.6,0.6-0.8,0.7c-0.3-0.3-0.5-0.3,0.1-1.4l7.5-9.4l2,1.5l1.3-1.7l-6.6-5L43,40.8z M36,46.5
				c-0.9,1.2-1.7,1-2.5,0.4h-0.1c0,0,0.7-0.9,1-1.4l2.2-2.9l0,0l1.4,1.1L36,46.5z"/>
		</g>
		<path class="st2" d="M161.6,157.6l-2.1,2.1c0,0-3.5,3.6-4.2,4.4c-1-0.5-8.1-4.1-8.1-4.1s3.7,7,4.2,8.1c-0.8,0.8-6.3,6.3-6.3,6.3
			s7.8-1.1,8.9-1.3c0.5,1,4.2,8.1,4.2,8.1s1.2-7.9,1.3-9c1.1-0.2,8.9-1.4,8.9-1.4s-7-3.6-8-4.1C160.4,165.5,161.6,157.6,161.6,157.6
			z"/>
		<g>
			<path class="st2" d="M146.6,37.4l11.4,9.1l4.9-4.5l2.7,3l-1.4,1.3l-1.3-1.4l-1.5,1.4l1.5,1.7l0.2,0.2c0,0,1.1,0.5,1.6,0.4
				c0.5-0.3,0.6-0.4,0.6-0.4l1.8-1.7l0.7-1c0,0-0.3-1.4-0.3-1.5c-0.1-0.1-0.1-0.2-0.1-0.2l-2.9-3.1l1.6-1.4c2.5,2.4,4.9,4.9,7.1,7.6
				c-2.1-0.1-4.3,0.9-6.3,3c-1.5,1.3-1.6,3.6-0.3,6.2l1.9-0.9c-0.5-1-1.2-2.8-0.1-3.7c2.5-2.6,5.1-3.1,7.2-1.4l0.4-0.6l1.2-0.9
				c-6.6-8.7-14.6-15.9-23.6-21.4l-1.1,1.8c4.2,2.6,8.3,5.7,12.1,9.1c-0.4,0.4-1,0.9-1.6,1.4l-10.7-8.3l0,0l0,0l0,0
				c-1-0.8-2.2-0.6-3.1,0.4l0,0l-2.7,2.6l-0.2,0.2C145.5,35,145.7,36.1,146.6,37.4L146.6,37.4z M147.8,35.3l2.6-2.5l0,0l0.3-0.3
				l0.4,0.3l0,0l10.1,7.8c-1.5,1.4-3,2.6-3.4,3.1c-1.1-0.9-8.9-7.1-9.8-7.9C147.8,35.5,147.8,35.3,147.8,35.3z"/>
			<path class="st2" d="M194.1,72.6l1.4-1.6l-9.8-7.9l-1,1.3l-0.2-0.5l-1.4,0.6c0.3-1.4,0.5-2.6,0.6-3.1v-0.3l-0.1-0.3
				c-1.6-4.2-3.6-7.4-5.9-9.2l-1.3,1.7c0.3,0.3,0.6,0.5,0.8,0.8l-4.3,5.1c-0.8-0.7-1.4-1.3-2-1.9l-1.4,1.5c2.2,2.2,5.6,4.8,9.3,7.3
				l-4.9,2l0.8,2l9.7-4.1c0.6,1.4,1.2,2.7,1.8,4.1l-10.3,2.7l0.5,2l10.5-2.8c0.6,1.6,1.2,3.2,1.7,4.8c-2.2-0.9-5.2-0.8-7.8,0.7
				c-1.8,0.5-2.9,2.5-2.7,5.6l2.1-0.2c-0.1-0.9,0-3.1,1.4-3.5c3.1-1.7,6.8-1.3,8,0.8c1.7,6.3,2.8,12.8,3.2,19.7
				c-0.8,0-2.2,0.1-3.7,0.2l-1.7-12.8l0,0c-0.3-1.5-1.2-2.4-2.5-2.4h-0.1l-3.5,0.3h-0.1c-1.3,0.3-2,1.2-2,2.4v0.1l1.4,14.9l12.2-0.4
				l-0.6,5.5c0,0-1.2,6.4-1.3,6.8c-0.2,0.3-1.4,1.5-2.1,2.5c-0.9-0.3-2.7-0.6-3.1-0.7c-0.3-0.3-1.2-1.4-1.6-2
				c0.1-0.7,0.4-2.2,0.5-2.6c0.2-0.3,0.6-0.7,0.9-1.1c0.6,0.2,1.4,0.3,1.4,0.3l0.5-2l-2.6-0.6l-0.4,0.5l-1.7,2l-0.8,4.1l1.4,1.8
				l-1.3,0.4l-0.6,0.2l-0.9,4.1l1.3,3.1l2.6,0.8l0.6-2c0,0-1-0.3-1.6-0.4c-0.2-0.5-0.4-1.1-0.6-1.5c0.1-0.4,0.4-1.6,0.5-2.3
				c0.5-0.2,1.4-0.5,1.9-0.7l3.3,0.8l1.4,3.3c-0.3,1-1,4.2-1.1,4.6c-0.3,0.3-2.2,2.6-2.9,3.5l-9.6-3.1l-0.7,2l12.5,4
				c-2.7,8.2-6.6,15.7-11.5,22.6l-2.4-1.7c3.2-4.7,5.6-8.7,7.6-12.8l0,0c0.5-0.9,0.4-2-0.1-2.7l-0.3-0.3l-3.4-1.8l-0.3-0.1
				c-0.8-0.2-2,0-3,1.4l-0.1,0.2c-1,2-2.4,4.6-4.3,7l1.7,1.4c2-2.5,3.5-5.2,4.5-7.2c0.3-0.3,0.5-0.4,0.8-0.4l2.9,1.5
				c0,0.1,0,0.3-0.1,0.4l0,0c-1.9,3.9-4.2,8-7.4,12.6l-5.1-3.5l-1.2,1.7l9.2,6.4c-0.8,1.1-1.8,2.3-2.6,3.4l1.6,1.4
				c7.2-8.7,12.7-18.6,16.2-29.5l0.3-0.9l-1.2-0.3l-1.6-0.5l2.7-3.1c0,0,1.2-5.1,1.3-5.4s-0.1-0.7-0.1-0.7s-1.2-2.6-1.5-3.5
				c0.6-0.7,2.5-2.9,2.5-2.9l1.4-7.6l0.8-6.7c-0.7-12.4-3.1-23.3-7.9-34.3L194.1,72.6z M180.7,64.8c-2.2-1.4-4.2-2.9-6-4.2l4.1-4.8
				c1,1.4,2,3.3,2.8,5.5C181.4,62.5,181.1,63.9,180.7,64.8z M182.5,100.5c-0.2-1.6-1.2-12.1-1.3-12.8c0-0.1,0.1-0.2,0.3-0.3l3.3-0.3
				c0.2,0,0.3,0,0.4,0.6l0,0l1.7,12.6C185,100.5,183.1,100.5,182.5,100.5z"/>
			<polygon class="st2" points="176.9,96.8 176.2,92.2 174.1,92.6 174.9,97.1 			"/>
		</g>
	</g>
</g>
</svg>
