<?xml version="1.0" encoding="utf-8"?>
<!-- Generator: Adobe Illustrator 24.1.1, SVG Export Plug-In . SVG Version: 6.00 Build 0)  -->
<svg version="1.1" id="Layer_1" xmlns="http://www.w3.org/2000/svg" xmlns:xlink="http://www.w3.org/1999/xlink" x="0px" y="0px"
	 viewBox="0 0 144.74 365.19" style="enable-background:new 0 0 144.74 365.19;" xml:space="preserve">
<style type="text/css">
	.st0{fill:#007BFF;}
</style>
<g>
	<ellipse class="st0" cx="52.11" cy="27.74" rx="41.51" ry="27.74"/>
	<path class="st0" d="M61.88,69.28c0,0,57.36,32.97,62.82,40.35c5.46,7.38,9.01,11.34,3.09,16.62c-5.92,5.27-16.18,6.86-11.84,10.02
		c4.34,3.16,50.09,36.17,57.42,54.55c17.76,44.57-40.05,95.52-40.05,95.52H-16.27l33.94-93.89c0,0,33.55,18.2,53.68,4.22
		c20.13-13.98,14.6-30.59-5.53-42.73S27.54,137.06,30.7,130.2c3.16-6.86,17.56-14.77,21.41-18.2c3.85-3.43-1.28-11.87-12.33-4.22
		s-39.86,21.1-25.65,28.75c0,0,43.43,24,49.54,29.8c6.11,5.8,7.31,17.93,0,21.63s-18.36,7.38-29.81,0.26s-83.28-41.93-72.62-59.08
		s66.7-59.87,74.2-59.87S61.88,69.28,61.88,69.28z"/>
	<path class="st0" d="M33.07,298.46h48.54v51.43c0,0,1.18,15.3-24.27,15.3s-24.27-13.98-24.27-13.98V298.46z"/>
</g>
</svg>
