<?xml version="1.0" encoding="utf-8"?>
<!-- Generator: Adobe Illustrator 24.1.1, SVG Export Plug-In . SVG Version: 6.00 Build 0)  -->
<svg version="1.1" id="Layer_1" xmlns="http://www.w3.org/2000/svg" xmlns:xlink="http://www.w3.org/1999/xlink" x="0px" y="0px"
	 viewBox="0 0 595.28 841.89" style="enable-background:new 0 0 595.28 841.89;" xml:space="preserve">
<style type="text/css">
	.st0{fill:none;stroke:#EC1C24;stroke-width:1.1602;}
	.st1{fill:#EC1C24;}
	.st2{fill:#FF0000;}
</style>
<line class="st0" x1="301.4" y1="429.94" x2="301.4" y2="461.83"/>
<path class="st1" d="M301.4,467.18c-0.73-2.52-1.95-5.64-3.24-7.58l3.24,1.53l3.23-1.53C303.33,461.54,302.11,464.67,301.4,467.18"
	/>
<path class="st0" d="M301.42,395.71v-9.95c0-6.42-2-5.73-9.06-6.25"/>
<path class="st2" d="M288.62,379.63c2.01,0.39,4.51,1.08,6.05,1.81l-1.21-1.81l1.21-1.82C293.13,378.54,290.63,379.23,288.62,379.63
	"/>
<path class="st1" d="M302.54,427.2c0.05,0.03,0.13,0.09,0.23,0.18c0.12,0.12,0.18,0.25,0.18,0.41c0,0.25-0.14,0.44-0.42,0.57
	c-0.05,0-0.11,0.01-0.19,0.02c-0.08,0.01-0.15,0.02-0.19,0.02c-0.28,0-0.5-0.07-0.65-0.23c-0.14-0.13-0.2-0.29-0.2-0.5v-0.17
	c-0.29,0.03-0.51,0.13-0.66,0.28c-0.08,0.09-0.15,0.25-0.23,0.46c-0.06,0.18-0.12,0.3-0.2,0.34c-0.07,0.07-0.15,0.12-0.23,0.16
	c-0.12,0.05-0.19,0.09-0.22,0.1c-0.13,0.1-0.32,0.24-0.58,0.43v-3.63l0.64-0.47v0.96h4.63l-0.39,0.26
	c-0.53,0.09-0.89,0.21-1.07,0.36C302.76,426.95,302.61,427.09,302.54,427.2 M299.81,426.59v1.27c0.46-0.44,0.87-0.69,1.22-0.75
	c0.37-0.07,0.64-0.1,0.82-0.09c0.17-0.12,0.38-0.26,0.66-0.43H299.81z"/>
<path class="st1" d="M299.62,425.18c-0.39,0.02-0.83,0.04-1.33,0.04l0.28-0.25c0.27-0.03,0.47-0.09,0.6-0.17v-0.48l0.61-0.46v0.91
	h4.75l-0.65,0.45h-3.33c-0.22,0-0.4,0.05-0.55,0.16c-0.15,0.11-0.22,0.24-0.22,0.41v0.09l-0.59,0.46c-0.03-0.19-0.04-0.33-0.04-0.42
	C299.14,425.57,299.3,425.32,299.62,425.18"/>
<path class="st1" d="M299.79,421.93h4.51c-0.09,0.12-0.24,0.23-0.44,0.33c-0.19,0.07-0.37,0.14-0.55,0.22
	c-0.32,0.13-0.58,0.32-0.78,0.58c-0.2,0.26-0.31,0.54-0.34,0.82l-0.89,0.48c-0.65-0.69-1.1-1.35-1.37-1.99h-0.14v1.98l-0.62,0.47
	v-3.28l0.62-0.47V421.93z M300.76,422.38c0.18,0.37,0.43,0.73,0.76,1.09c0.29-0.48,0.69-0.84,1.21-1.09H300.76z M303.88,423.25
	c0,0.11-0.06,0.21-0.17,0.29c-0.11,0.08-0.25,0.13-0.4,0.13c-0.14,0-0.26-0.04-0.37-0.11c-0.1-0.07-0.15-0.16-0.15-0.27
	c0-0.11,0.05-0.2,0.16-0.29c0.11-0.08,0.24-0.13,0.38-0.13c0.14,0,0.26,0.04,0.37,0.11C303.83,423.06,303.88,423.15,303.88,423.25"
	/>
<path class="st1" d="M299.62,421.04c-0.39,0.02-0.83,0.03-1.33,0.03l0.28-0.25c0.27-0.03,0.47-0.09,0.6-0.17v-0.48l0.61-0.46v0.91
	h4.75l-0.65,0.45h-3.33c-0.22,0-0.4,0.05-0.55,0.16c-0.15,0.11-0.22,0.24-0.22,0.41v0.08l-0.59,0.46c-0.03-0.19-0.04-0.33-0.04-0.42
	C299.14,421.42,299.3,421.18,299.62,421.04"/>
<path class="st1" d="M299.79,420.25l-0.62,0.46v-4.27l0.62-0.48V420.25z M303.54,418.07c0,0.13-0.04,0.28-0.11,0.44
	c-0.07,0.17-0.17,0.29-0.28,0.39c-0.55,0.47-1.67,0.88-3.36,1.25l0.19-0.34c0.85-0.26,1.42-0.46,1.73-0.62
	c0.63-0.32,0.94-0.71,0.94-1.15c0-0.2-0.11-0.39-0.32-0.58c-0.21-0.18-0.45-0.28-0.7-0.28c-0.21,0-0.41,0.05-0.59,0.14
	c-0.19,0.1-0.27,0.21-0.27,0.35c0,0.03,0.01,0.07,0.02,0.11c0.13-0.06,0.28-0.08,0.44-0.08c0.48,0,0.72,0.19,0.72,0.57
	c0,0.2-0.09,0.35-0.27,0.46c-0.17,0.11-0.39,0.16-0.66,0.16c-0.29,0-0.54-0.09-0.74-0.26c-0.18-0.17-0.27-0.36-0.27-0.58
	c0-0.38,0.2-0.69,0.61-0.94c0.38-0.23,0.82-0.35,1.33-0.35c0.46,0,0.85,0.13,1.15,0.39C303.39,417.41,303.54,417.72,303.54,418.07"
	/>
<path class="st1" d="M299.79,415.99h5.37l-0.31,0.28c-0.31,0.1-0.5,0.17-0.57,0.2c-0.25,0.11-0.38,0.21-0.38,0.31
	c0,0.02,0.02,0.03,0.06,0.05c0.14,0,0.27,0.05,0.39,0.13c0.12,0.08,0.18,0.18,0.18,0.29c0,0.15-0.06,0.26-0.18,0.36
	c-0.12,0.09-0.28,0.14-0.47,0.14c-0.19,0-0.34-0.07-0.46-0.2c-0.1-0.11-0.15-0.24-0.15-0.38c0-0.28,0.11-0.52,0.35-0.73h-3.83v0.11
	l-0.62,0.47v-1.37l0.62-0.46V415.99z"/>
<path class="st1" d="M301.64,412.54c-0.25,0.02-0.47,0.12-0.66,0.29c-0.19,0.17-0.28,0.35-0.28,0.55v0.03h3.64l-0.33,0.24
	c-0.29,0.07-0.46,0.12-0.52,0.14c-0.13,0.05-0.28,0.13-0.46,0.24c-0.5,0.32-0.79,0.69-0.85,1.11l-0.83,0.51
	c-0.64-0.58-1.1-1.18-1.37-1.8h-0.19v1.96l-0.62,0.46v-4.27l0.62-0.45v1.85h0.14c0-0.33,0.2-0.62,0.61-0.88
	c0.38-0.24,0.79-0.36,1.22-0.36c0.24,0,0.45,0.05,0.63,0.15c0.2,0.11,0.31,0.26,0.31,0.44c0,0.13-0.06,0.24-0.18,0.34
	c-0.12,0.1-0.27,0.15-0.45,0.15c-0.19,0-0.37-0.07-0.53-0.22c-0.04-0.08-0.05-0.16-0.05-0.22
	C301.5,412.73,301.55,412.64,301.64,412.54 M300.77,413.85c0.12,0.22,0.37,0.52,0.73,0.91c0.25-0.37,0.62-0.68,1.11-0.91H300.77z"/>
<path class="st1" d="M299.79,405.04h4.58l-0.26,0.25c-0.54,0.1-1.08,0.31-1.62,0.64c0.39,0.21,0.59,0.48,0.59,0.8
	c0,0.47-0.39,0.89-1.18,1.25c-0.61,0.28-1.31,0.48-2.1,0.59l0.18-0.34c0.69-0.18,1.17-0.35,1.46-0.51c0.47-0.25,0.71-0.56,0.71-0.94
	c0-0.16-0.06-0.29-0.18-0.4c-0.12-0.11-0.28-0.16-0.48-0.16c-0.13,0-0.27,0.02-0.41,0.05c-0.18,0.04-0.28,0.1-0.31,0.17
	c0.3,0.09,0.45,0.26,0.45,0.49c0,0.15-0.06,0.28-0.19,0.41c-0.13,0.12-0.3,0.18-0.5,0.18c-0.23,0-0.42-0.08-0.55-0.24
	c-0.1-0.13-0.15-0.28-0.15-0.45c0-0.32,0.17-0.59,0.51-0.82c0.34-0.23,0.72-0.34,1.15-0.34h0.23l0.51-0.19h-2.44v3.1l-0.62,0.46
	v-4.2l0.62-0.46V405.04z"/>
<path class="st1" d="M300.42,401.91c-0.58,0.05-1.25,0.08-1.99,0.08l0.29-0.3l0.08-0.04c0.18-0.01,0.3-0.06,0.38-0.16v-0.31
	c0-0.05,0.01-0.1,0.02-0.14l0.6-0.45v0.93h4.52c-0.12,0.13-0.32,0.29-0.59,0.49l-2.3-0.04c-0.08,0-0.19,0.03-0.36,0.1
	c-0.16,0.07-0.29,0.13-0.37,0.2l1.5,1.09l-0.31,0.61c-0.1-0.08-0.2-0.16-0.31-0.24c-0.14-0.1-0.27-0.15-0.37-0.15
	c-0.24,0-0.36,0.05-0.36,0.15c0,0.04,0.03,0.11,0.09,0.21c0.06,0.1,0.09,0.17,0.09,0.23c0,0.07-0.05,0.14-0.15,0.21
	c-0.1,0.06-0.2,0.1-0.3,0.1c-0.09,0-0.18-0.02-0.28-0.07c-0.71-0.31-1.06-0.74-1.06-1.28c0-0.27,0.12-0.51,0.35-0.73
	C299.8,402.19,300.08,402.03,300.42,401.91 M300.29,403.67c0.02-0.11,0.1-0.2,0.23-0.28c0.13-0.08,0.26-0.13,0.41-0.14l-0.8-0.6
	c-0.16,0.11-0.24,0.24-0.24,0.4C299.89,403.32,300.02,403.54,300.29,403.67"/>
<path class="st1" d="M303.9,401.99h-0.02c-0.06,0-0.16,0-0.29,0.01c-0.13,0-0.24,0-0.32,0l-0.04-0.06c0-0.07,0.1-0.15,0.29-0.24
	c0.17-0.07,0.32-0.11,0.45-0.12h0.14c0.05,0,0.11,0,0.17-0.01c0.18-0.17,0.38-0.33,0.62-0.48c0.31-0.2,0.57-0.29,0.78-0.29
	c0.1,0,0.15,0.04,0.15,0.11c0,0.03-0.02,0.06-0.06,0.08c-0.4,0.27-0.71,0.52-0.95,0.74c-0.06,0.06-0.1,0.1-0.1,0.1
	c0.01,0,0.02,0,0.04,0.01c0.27,0.2,0.41,0.39,0.41,0.57c0,0.18-0.05,0.33-0.16,0.45c-0.13,0.15-0.32,0.23-0.56,0.23
	c-0.23,0-0.42-0.07-0.57-0.21c-0.13-0.12-0.19-0.27-0.19-0.44C303.68,402.33,303.76,402.18,303.9,401.99 M304.38,402.19
	c-0.06,0.03-0.08,0.1-0.08,0.21c0,0.18,0.05,0.27,0.14,0.27c0.08,0,0.12-0.04,0.12-0.12c0-0.06-0.01-0.13-0.04-0.21
	C304.49,402.24,304.44,402.19,304.38,402.19"/>
<path class="st1" d="M298.44,398.14c-0.42,0.42-0.63,0.84-0.63,1.26c0,0.42,0.27,0.75,0.82,1.02c0.11,0.05,0.18,0.08,0.23,0.08
	c0.05-0.01,0.15-0.05,0.31-0.1v-0.6l0.62-0.46v0.92h4.56l-0.6,0.46h-3.96v0.45l-0.62,0.46v-0.84c-0.2,0.16-0.38,0.24-0.53,0.24
	c-0.17,0-0.3-0.02-0.41-0.07c-0.73-0.32-1.09-0.73-1.09-1.25c0-0.68,0.44-1.35,1.32-1.99l0.57-0.15L298.44,398.14z"/>
<path class="st1" d="M299.81,397.51c0.2-0.09,0.38-0.13,0.56-0.13c0.18,0,0.44,0.09,0.76,0.26c0.26,0.14,0.61,0.44,1.04,0.89
	c0.3,0.31,0.53,0.46,0.7,0.46c0.11,0,0.17-0.05,0.17-0.15c0-0.27-0.12-0.55-0.37-0.86c-0.01-0.02-0.02-0.03-0.03-0.05
	c-0.01-0.01-0.03-0.02-0.07-0.01c-0.16,0.1-0.29,0.15-0.39,0.15c-0.15,0-0.29-0.04-0.4-0.13c-0.12-0.08-0.17-0.19-0.17-0.3
	c0-0.13,0.06-0.25,0.19-0.34c0.13-0.09,0.28-0.14,0.46-0.14c0.39,0,0.72,0.19,0.98,0.57c0.22,0.31,0.33,0.62,0.33,0.92
	c0,0.53-0.28,0.8-0.83,0.8c-0.25,0-0.47-0.05-0.66-0.16c-0.13-0.07-0.28-0.2-0.47-0.38c-0.02-0.03-0.06-0.06-0.1-0.09
	c0.01,0.01,0.01,0.02,0.02,0.04c0.01,0.02,0.01,0.05,0.02,0.09v0.04c0.01,0.01,0.01,0.04,0,0.09c-0.19,0.26-0.46,0.39-0.8,0.39
	c-0.36,0-0.67-0.09-0.94-0.28v0.67l-0.64,0.45v-2.25l0.17-0.2c-0.06-0.06-0.14-0.09-0.23-0.07c-0.08-0.01-0.15,0-0.24,0.03
	c-0.02,0-0.04,0.04-0.06,0.11c-0.02,0.07-0.03,0.12-0.03,0.14c0,0.12,0.01,0.3,0.03,0.53c0.02,0.23,0.03,0.41,0.03,0.53
	c0,0.21-0.09,0.42-0.28,0.62c-0.21,0.22-0.45,0.33-0.74,0.33c-0.3,0-0.52-0.06-0.67-0.18l0.12-0.3c0.15,0.1,0.26,0.14,0.35,0.14
	c0.21,0,0.35-0.08,0.41-0.23c0.02-0.07,0.03-0.22,0.03-0.43c0-0.08-0.01-0.21-0.02-0.38c-0.02-0.17-0.02-0.3-0.02-0.38
	c0-0.26,0.11-0.47,0.32-0.64c0.22-0.17,0.49-0.26,0.82-0.28v-0.08v-0.08v-0.1l0.64-0.34V397.51z M299.81,398.19
	c0,0.19,0.05,0.28,0.15,0.29c0.46-0.27,0.69-0.42,0.69-0.42c0-0.06-0.06-0.1-0.18-0.13c-0.09-0.03-0.19-0.04-0.28-0.04
	C299.94,397.88,299.81,397.98,299.81,398.19 M300.26,398.74c0.12,0.16,0.28,0.24,0.47,0.24c0.29,0,0.44-0.1,0.44-0.31
	c0-0.25-0.06-0.37-0.17-0.38C300.98,398.3,300.73,398.45,300.26,398.74"/>
</svg>
